<?xml version="1.0" encoding="utf-8"?>
<!-- Generator: Adobe Illustrator 24.1.2, SVG Export Plug-In . SVG Version: 6.00 Build 0)  -->
<svg version="1.1" id="Warstwa_3" xmlns="http://www.w3.org/2000/svg" xmlns:xlink="http://www.w3.org/1999/xlink" x="0px" y="0px"
	 viewBox="0 0 430 430" style="enable-background:new 0 0 430 430;" xml:space="preserve">
<style type="text/css">
	.st0{fill:#121331;}
	.st1{fill:#08A88A;}
	.st2{fill:none;stroke:#121331;stroke-width:12;stroke-linecap:round;stroke-linejoin:round;stroke-miterlimit:10;}
	.st3{fill:none;stroke:#08A88A;stroke-width:12;stroke-linecap:round;stroke-linejoin:round;stroke-miterlimit:10;}
	.st4{fill:#08A789;}
</style>
<g>
	<path class="st1" d="M235.63,138.26h-41.25c-3.31,0-6-2.69-6-6s2.69-6,6-6h41.25c3.31,0,6,2.69,6,6S238.94,138.26,235.63,138.26z"
		/>
	<path class="st1" d="M235.63,180.9h-41.25c-3.31,0-6-2.69-6-6s2.69-6,6-6h41.25c3.31,0,6,2.69,6,6S238.94,180.9,235.63,180.9z"/>
	<g>
		<path class="st0" d="M215,408.17c-34.08,0-58.49-6.5-74.63-19.88c-15.43-12.79-22.94-31.39-22.94-56.87
			c0-20,7.72-39.55,21.73-55.05c4.79-5.29,6.45-12.48,4.45-19.23c-0.03-0.11-0.06-0.22-0.09-0.33l-0.02-0.04
			c-0.01-0.04-0.04-0.12-0.05-0.17c-5.56-19.29-3.56-38.63,5.63-54.46c9.07-15.63,24.65-26.8,43.87-31.48
			c3.22-0.79,6.46,1.19,7.25,4.41s-1.19,6.46-4.41,7.25c-16.01,3.89-28.91,13.07-36.32,25.84c-7.52,12.96-9.12,28.96-4.5,45.06
			c0.07,0.22,0.13,0.43,0.18,0.63c3.14,10.77,0.5,22.18-7.09,30.57c-12.19,13.48-18.63,29.73-18.63,47
			c0,44.77,26.39,64.74,85.57,64.74s85.57-19.97,85.57-64.74c0-17.27-6.44-33.52-18.63-47.01c-7.59-8.38-10.23-19.79-7.09-30.56
			c0.06-0.22,0.12-0.44,0.19-0.66c4.62-16.04,3.03-32.06-4.5-45.03c-7.41-12.77-20.31-21.95-36.32-25.84
			c-3.22-0.78-5.2-4.03-4.41-7.25s4.03-5.2,7.25-4.41c19.22,4.67,34.8,15.85,43.87,31.48c9.19,15.83,11.19,35.17,5.63,54.46
			c-0.01,0.04-0.02,0.08-0.04,0.12l-0.05,0.16c-0.03,0.11-0.04,0.14-0.07,0.25c-2,6.76-0.34,13.94,4.44,19.23
			c14.02,15.5,21.73,35.05,21.73,55.06c0,25.47-7.5,44.07-22.94,56.87C273.49,401.67,249.08,408.17,215,408.17z M280.64,255.44
			L280.64,255.44L280.64,255.44z"/>
		<path class="st1" d="M188.45,46.97h-12.47c-3.31,0-6-2.69-6-6s2.69-6,6-6h12.47c3.31,0,6,2.69,6,6S191.76,46.97,188.45,46.97z"/>
		<path class="st0" d="M235.63,234.26c-3.31,0-6-2.69-6-6V95.62h-29.25v132.65c0,3.31-2.69,6-6,6s-6-2.69-6-6V89.62
			c0-3.31,2.69-6,6-6h41.25c3.31,0,6,2.69,6,6v138.65C241.63,231.58,238.94,234.26,235.63,234.26z"/>
		<path class="st1" d="M254.02,46.97h-12.47c-3.31,0-6-2.69-6-6s2.69-6,6-6h12.47c3.31,0,6,2.69,6,6S257.33,46.97,254.02,46.97z"/>
		<path class="st1" d="M251.19,72.16h-12.47c-3.31,0-6-2.69-6-6s2.69-6,6-6h12.47c3.31,0,6,2.69,6,6S254.51,72.16,251.19,72.16z"/>
		<path class="st1" d="M191.28,72.16h-12.47c-3.31,0-6-2.69-6-6s2.69-6,6-6h12.47c3.31,0,6,2.69,6,6S194.59,72.16,191.28,72.16z"/>
		<path class="st0" d="M235.63,95.62h-41.25c-3.01,0-5.55-2.23-5.95-5.21l-5.89-44.64c-0.83-6.26,1.04-12.52,5.11-17.17
			c3.77-4.3,9.13-6.77,14.69-6.77h25.33c5.57,0,10.92,2.47,14.69,6.77c4.07,4.65,5.94,10.9,5.11,17.17l-5.89,44.64
			C241.18,93.38,238.64,95.62,235.63,95.62z M199.63,83.62h30.73l5.21-39.42c0.37-2.84-0.44-5.64-2.24-7.69
			c-1.51-1.73-3.53-2.68-5.67-2.68h-25.33c-2.14,0-4.16,0.95-5.67,2.68c-1.8,2.05-2.61,4.85-2.24,7.69L199.63,83.62z"/>
		<path class="st0" d="M215,283.11c-19.18,0-34.78-15.6-34.78-34.78s15.6-34.78,34.78-34.78s34.78,15.6,34.78,34.78
			S234.18,283.11,215,283.11z M215,225.55c-12.56,0-22.78,10.22-22.78,22.78s10.22,22.78,22.78,22.78s22.78-10.22,22.78-22.78
			S227.56,225.55,215,225.55z"/>
		<path class="st1" d="M245.65,345.99h-61.3c-3.31,0-6-2.69-6-6s2.69-6,6-6h61.3c3.31,0,6,2.69,6,6S248.96,345.99,245.65,345.99z"/>
	</g>
</g>
</svg>
